<svg xmlns="http://www.w3.org/2000/svg" width="800" height="500" viewBox="0 0 800 500">
  <rect width="800" height="500" fill="#f1f5f9" rx="8"/>
  <rect x="100" y="80" width="600" height="340" rx="12" fill="#fff" stroke="#e2e8f0" stroke-width="2"/>
  <rect x="130" y="110" width="120" height="40" rx="6" fill="#2563eb" opacity="0.15"/>
  <rect x="130" y="170" width="200" height="12" rx="4" fill="#2563eb" opacity="0.4"/>
  <rect x="130" y="195" width="160" height="12" rx="4" fill="#2563eb" opacity="0.25"/>
  <rect x="130" y="230" width="100" height="30" rx="6" fill="#2563eb" opacity="0.6"/>
  <rect x="500" y="130" width="170" height="80" rx="8" fill="#2563eb" opacity="0.1" stroke="#2563eb" stroke-width="1" stroke-dasharray="4"/>
  <text x="585" y="175" font-family="sans-serif" font-size="11" fill="#2563eb" text-anchor="middle" opacity="0.6">ParkEase</text>
  <rect x="500" y="225" width="170" height="40" rx="6" fill="#2563eb" opacity="0.15"/>
  <rect x="500" y="275" width="170" height="40" rx="6" fill="#2563eb" opacity="0.1"/>
  <rect x="500" y="325" width="170" height="40" rx="6" fill="#2563eb" opacity="0.15"/>
  <circle cx="160" cy="370" r="20" fill="#2563eb" opacity="0.1"/>
  <circle cx="220" cy="370" r="20" fill="#2563eb" opacity="0.05"/>
  <circle cx="280" cy="370" r="20" fill="#2563eb" opacity="0.1"/>
  <text x="400" y="460" font-family="sans-serif" font-size="13" fill="#94a3b8" text-anchor="middle">Parking Management Dashboard</text>
</svg>
